<svg width="425" height="428" viewBox="0 0 425 428" fill="none" xmlns="http://www.w3.org/2000/svg">
<path d="M328.508 378.498C332.44 385.858 336.676 393.032 341.106 400.07C331.937 393.007 322.48 386.272 312.563 380.307C322.996 393.023 334.816 404.532 346.87 415.666L352.943 421.136L359.099 426.523C361.003 428.184 363.868 427.98 365.526 426.074C366.944 424.442 366.996 422.068 365.775 420.391C362.663 416.09 359.516 411.818 356.259 407.597C348.134 397.039 339.695 386.711 330.53 377.017C328.913 375.341 326.56 372.861 324.861 371.27C325.816 373.353 327.402 376.393 328.503 378.478L328.508 378.498ZM397.79 369.224C401.992 372.378 398.498 378.951 393.519 377.174C376.003 370.553 358.685 363.272 342.625 353.525C352.555 355.102 362.261 357.554 371.867 360.408C367.633 356.824 363.481 353.156 359.488 349.382C356.021 346.094 352.622 342.746 349.399 339.121C353.797 341.137 357.993 343.415 362.162 345.743C374.437 352.726 386.409 360.833 397.79 369.224ZM418.342 306.639C423.683 307.275 423.795 314.928 418.453 315.691C396.817 318.44 374.888 320.559 353.065 319.809C364.262 316.308 375.718 313.697 387.245 311.506C378.533 310.041 369.875 308.311 361.343 306.192C359.036 305.599 355.66 304.75 353.43 304.053C355.772 303.843 359.254 303.766 361.632 303.693C380.557 303.277 399.561 304.636 418.386 306.648L418.342 306.639ZM425.49 238.148L416.058 245.122C393.941 261.173 371.312 276.944 347.635 290.596C359.629 279.177 372.246 268.448 385.113 258.027C373.838 263.261 362.457 268.252 350.982 272.893C347.837 274.153 343.198 275.981 340.075 277.089C342.812 275.165 347.017 272.494 349.839 270.652C372.684 256.076 396.619 242.919 420.697 230.455C425.701 227.966 429.922 234.768 425.514 238.162L425.49 238.148ZM344.415 238.66C337.583 246.232 330.794 253.813 323.664 261.131C329.199 252.529 335.061 244.215 340.913 235.862C355.505 215.229 371.061 194.694 386.638 174.779L396.107 162.805C397.508 161.031 400.045 160.539 402.034 161.739C404.197 163.038 404.885 165.839 403.568 168.008C398.385 176.6 393.158 185.182 387.851 193.702C371.849 219.264 355.471 244.592 337.639 268.931C346.944 249.653 357.027 230.792 367.476 212.126C359.876 221.115 352.187 230.002 344.44 238.675L344.415 238.66ZM335.712 164.082C330.277 179.672 324.758 195.18 319.134 210.528C313.964 224.461 308.799 238.412 303.266 252.233C306.903 237.793 310.908 223.484 314.908 209.155C324.976 173.66 335.934 137.675 347.125 102.484L353.949 81.2614C354.668 79.0435 356.99 77.6699 359.325 78.2134C361.773 78.7892 363.305 81.2388 362.731 83.689L357.607 105.73C345.422 157.054 332.61 208.608 317.675 259.166C322.98 227.452 329.13 195.699 335.731 164.076L335.712 164.082ZM289.811 141.245C288.612 161.128 287.315 180.954 285.838 200.577C284.508 217.635 283.198 234.688 281.467 251.728C281.174 234.604 281.281 217.498 281.37 200.396C281.757 157.954 282.877 114.668 284.446 72.2017L285.463 46.5845C285.56 44.2205 287.461 42.2913 289.859 42.2125C292.378 42.122 294.494 44.1022 294.561 46.6103C296.932 114.598 298.694 184.126 297.606 252.121C294.259 215.586 291.837 178.301 289.796 141.27L289.811 141.245ZM274.221 250.83C260.316 210.923 246.977 170.321 234.08 129.581C238.821 151.4 243.462 173.309 247.762 194.182C251.82 214.306 255.916 234.419 259.599 254.623C251.435 226.1 243.131 194.254 235.651 165.402C225.789 127.042 215.358 84.5341 206.127 45.8801L199.057 15.9161C198.514 13.5773 199.875 11.1875 202.194 10.5036C204.61 9.79355 207.145 11.1603 207.855 13.5795C212.25 28.2685 221.01 57.9257 225.307 72.6407C242.303 131.323 259.356 191.619 274.206 250.855L274.221 250.83ZM107.124 2.59512C156.433 86.3147 206.396 172.322 252.665 257.692C224.17 213.364 196.043 167.998 168.362 122.43C181.381 148.294 194.394 174.453 206.575 199.289C217.285 221.284 228.014 243.274 238.38 265.465C220.838 234.779 202.02 200.343 185.05 169.148C162.544 127.642 138.123 81.5548 116.117 39.5804L99.1831 7.04034C96.6138 1.65358 104.06 -2.30413 107.149 2.60939L107.124 2.59512ZM7.93534 38.296C26.7332 57.5599 75.23 107.28 93.2682 126.121C139.991 174.667 187.848 224.955 233.315 274.651C194.321 237.521 154.792 198.78 115.57 159.707C133.031 179.663 150.835 200.196 167.259 219.239C184.673 239.563 202.106 259.882 219.256 280.464C200.629 261.217 182.306 241.701 163.968 222.209C128.534 184.355 90.0455 142.496 55.1397 104.124L1.30973 44.539C-0.323894 42.722 -0.259364 39.9281 1.51423 38.2211C3.3163 36.4647 6.20444 36.5051 7.96001 38.3103L7.93534 38.296Z" fill="url(#paint0_radial_3454_47028)" fill-opacity="0.19"/>
<defs>
<radialGradient id="paint0_radial_3454_47028" cx="0" cy="0" r="1" gradientUnits="userSpaceOnUse" gradientTransform="translate(224.141 215.145) rotate(-97.6693) scale(214.578 214.312)">
<stop offset="0.3" stop-color="#FDEE00"/>
<stop offset="0.36" stop-color="#F2EB06"/>
<stop offset="0.47" stop-color="#D5E416"/>
<stop offset="0.61" stop-color="#A6D831"/>
<stop offset="0.77" stop-color="#66C956"/>
<stop offset="0.96" stop-color="#14B585"/>
<stop offset="1" stop-color="#00B091"/>
</radialGradient>
</defs>
</svg>
